<?xml version="1.0" encoding="utf-8"?>
<!-- Generator: Adobe Illustrator 16.0.0, SVG Export Plug-In . SVG Version: 6.00 Build 0)  -->
<!DOCTYPE svg PUBLIC "-//W3C//DTD SVG 1.1//EN" "http://www.w3.org/Graphics/SVG/1.1/DTD/svg11.dtd">
<svg version="1.1" id="Layer_1" xmlns="http://www.w3.org/2000/svg" xmlns:xlink="http://www.w3.org/1999/xlink" x="0px" y="0px"
	 width="300px" height="300px" viewBox="0 0 300 300" enable-background="new 0 0 300 300" xml:space="preserve">
<rect x="89.925" y="71.5" display="none" fill="none" width="111.333" height="95.5"/>
<g>
	<radialGradient id="SVGID_1_" cx="145.6621" cy="107.8364" r="31.1782" gradientUnits="userSpaceOnUse">
		<stop  offset="0" style="stop-color:#EA582B"/>
		<stop  offset="0.5" style="stop-color:#FBB040"/>
		<stop  offset="1" style="stop-color:#EA582B"/>
	</radialGradient>
	
		<rect x="126.115" y="88.29" transform="matrix(0.7071 -0.7071 0.7071 0.7071 -33.5884 134.5847)" fill="none" stroke="url(#SVGID_1_)" stroke-width="5" stroke-miterlimit="10" width="39.093" height="39.094"/>
	
		<rect x="155.745" y="95.372" transform="matrix(0.7071 -0.7071 0.7071 0.7071 -26.9831 150.5343)" fill="none" stroke="#1C4177" stroke-width="4" stroke-miterlimit="10" width="24.928" height="24.929"/>
	<polygon fill="none" stroke="#1C4177" stroke-width="4" stroke-miterlimit="10" points="140.603,107.837 135.044,113.396 
		131.497,116.943 122.976,125.464 105.348,107.836 122.976,90.209 	"/>
</g>
<g>
	<g>
		<path fill="#ED603D" d="M203.48,109.761h-2.421l-3.741-10.782l-3.761,10.782h-2.44l5.021-14.383h2.34L203.48,109.761z
			 M198.619,105.18l0.56,1.601h-3.741l0.561-1.601H198.619z"/>
		<path fill="#ED603D" d="M211.238,95.198v1.96c-1.54,0.4-2.76,1.94-2.801,5.341c0.041,3.361,1.261,5.121,2.801,5.541v1.78
			c-3-0.38-5.181-2.86-5.181-7.321S208.238,95.558,211.238,95.198z M212.119,97.058c-0.021,0-0.061,0-0.08,0v-1.92h0.02
			c1.561,0,2.941,0.52,4.001,1.56l-1.62,1.441C213.818,97.398,212.979,97.058,212.119,97.058z M216.8,102.339v5.562
			c-1.181,1.48-3.021,1.96-4.741,1.96h-0.02v-1.72c0.619,0,2-0.12,2.439-0.641v-3.561h-2.439v-1.601H216.8z"/>
		<path fill="#ED603D" d="M222.578,95.357l3.859,8.902v3.601h-0.619l-3.24-8.002v9.902h-2.381V95.357H222.578z M233.5,95.357v14.403
			h-2.381v-9.902l-3.221,8.002h-0.66V104.3l3.881-8.942H233.5z"/>
		<path fill="#ED603D" d="M248.898,109.761h-2.42l-3.74-10.782l-3.762,10.782h-2.439l5.021-14.383h2.34L248.898,109.761z
			 M244.038,105.18l0.56,1.601h-3.74l0.561-1.601H244.038z"/>
		<path fill="#ED603D" d="M251.896,95.357h2.34v14.403h-2.34V95.357z M261.658,109.761h-2.48l-2.721-5.221
			c-0.16,0.02-0.24,0.02-1.42,0.02v-1.721h1.34c1.101,0,2.421-0.66,2.421-3.021c0-0.96-0.4-2.681-2.801-2.681h-0.96v-1.78h1
			c2.46,0,5.021,1.661,5.021,4.461c0,2.061-1.04,3.561-2.68,4.281L261.658,109.761z"/>
		<path fill="#ED603D" d="M264.855,95.357h2.381v14.403h-2.381V95.357z M274.598,109.761h-2.721l-3.841-5.661v-2.86l3.501-5.882
			h2.681l-4.621,7.401L274.598,109.761z"/>
		<path fill="#ED603D" d="M281.396,107.98c0.021,0,0.04,0,0.061,0v1.86c-0.021,0-0.021,0-0.04,0c-1.2,0-2.82-0.24-3.741-1.04
			l0.42-1.681C278.856,107.54,280.356,107.98,281.396,107.98z M281.457,95.178v2.061c-0.82,0.3-1.461,1.1-1.461,1.84
			c0,1.001,0.62,1.581,1.461,2.041v2.24c-1.7-0.86-3.681-1.82-3.681-4.201C277.776,96.878,279.437,95.438,281.457,95.178z
			 M282.257,97.098v-1.96c1.141,0.02,2.44,0.22,3.181,0.7c-0.34,0.7-0.88,1.7-0.92,1.76
			C284.237,97.479,283.877,96.998,282.257,97.098z M286.038,105.82c0,1.88-1.4,3.641-3.781,3.96v-1.88
			c1.04-0.26,1.601-0.98,1.601-2.12c0-0.9-0.681-1.461-1.601-1.98v-2.281C283.978,102.339,286.038,103.1,286.038,105.82z"/>
	</g>
	<g>
		<path fill="#ED603D" d="M206.272,118.761h-0.968l-1.494-4.31l-1.504,4.31h-0.976l2.007-5.749h0.936L206.272,118.761z
			 M204.33,116.93l0.223,0.64h-1.494l0.224-0.64H204.33z"/>
		<path fill="#ED603D" d="M207.307,116.498c0-1.623,1-2.183,1.824-2.183c0.319,0,0.623,0.08,0.855,0.216v0.823
			c-0.168-0.191-0.393-0.312-0.656-0.312c-0.623,0-1.023,0.688-1.023,1.503c0,0.84,0.416,1.511,1.039,1.511
			c0.256,0,0.473-0.111,0.641-0.295v0.815c-0.24,0.128-0.584,0.224-0.943,0.224C207.867,118.801,207.307,117.689,207.307,116.498z
			 M211.257,114.355l-0.008,4.405c-0.088,1.279-0.888,1.775-1.888,1.775c-0.583,0-1.199-0.192-1.566-0.664l0.543-0.544
			c0.209,0.353,0.688,0.44,0.936,0.44c0.648,0,1.032-0.336,1.032-1.239v-3.727l0.104-0.447H211.257z"/>
		<path fill="#ED603D" d="M213.619,114.355l0.104,0.455v2.391c0,0.017,0,0.017,0,0.017v1.543h-0.943v-4.405H213.619z
			 M215.258,114.323v0.983c-0.137-0.04-0.328-0.064-0.535-0.064c-0.225,0-0.473,0.032-0.68,0.104v-0.792
			C214.299,114.403,214.635,114.323,215.258,114.323z"/>
		<path fill="#ED603D" d="M216.738,113.508c-0.312,0-0.56-0.248-0.56-0.56c0-0.304,0.248-0.56,0.56-0.56
			c0.305,0,0.561,0.256,0.561,0.56C217.299,113.26,217.043,113.508,216.738,113.508z M217.211,118.761h-0.952v-4.405h0.952V118.761z
			"/>
		<path fill="#ED603D" d="M222.705,112.939v0.784c-0.615,0.16-1.104,0.775-1.119,2.135c0.016,1.343,0.504,2.047,1.119,2.215v0.712
			c-1.199-0.152-2.07-1.144-2.07-2.927S221.506,113.084,222.705,112.939z M223.057,113.684c-0.008,0-0.023,0-0.031,0v-0.768h0.008
			c0.624,0,1.176,0.208,1.6,0.624l-0.648,0.575C223.736,113.819,223.401,113.684,223.057,113.684z M224.928,115.794v2.224
			c-0.471,0.591-1.207,0.783-1.895,0.783h-0.008v-0.688c0.248,0,0.799-0.048,0.976-0.256v-1.424h-0.976v-0.64H224.928z"/>
		<path fill="#ED603D" d="M228.073,118.186c0,0.088,0,0.575,0,0.575s-0.327,0.04-0.647,0.04c-0.16,0-0.32-0.008-0.439-0.032
			c-0.712-0.144-0.76-1.087-0.76-1.399c0-0.056,0-0.088,0-0.096v-4.581h0.951v4.726
			C227.178,118.113,227.594,118.186,228.073,118.186z"/>
		<path fill="#ED603D" d="M230.834,114.339v0.728c-0.521,0.112-0.864,0.712-0.864,1.472c0,0.768,0.319,1.407,0.864,1.503v0.752
			c-1.145-0.08-1.863-1.031-1.863-2.231C228.971,115.347,229.723,114.436,230.834,114.339z M233.023,116.578
			c0,1.207-0.751,2.135-1.87,2.215v-0.752c0.52-0.111,0.88-0.712,0.88-1.463c0-0.76-0.336-1.415-0.88-1.512v-0.735
			C232.305,114.403,233.023,115.362,233.023,116.578z"/>
		<path fill="#ED603D" d="M234.258,112.692h0.944v5.549c-0.009,0.144-0.04,0.336-0.048,0.52h-0.896V112.692z M238.2,116.482
			c0,1.199-0.552,2.318-1.728,2.318c-0.359,0-0.711-0.096-0.951-0.232v-0.815c0.16,0.185,0.376,0.304,0.632,0.304
			c0.616,0,1.056-0.647,1.056-1.486c0-0.816-0.393-1.527-1.016-1.527c-0.264,0-0.496,0.12-0.672,0.319v-0.831
			c0.232-0.136,0.536-0.216,0.855-0.216c0.688,0,1.447,0.367,1.728,1.375C238.168,115.931,238.2,116.202,238.2,116.482z"/>
		<path fill="#ED603D" d="M240.594,118.161v0.632c-0.032,0.008-0.064,0.008-0.104,0.008c-0.713,0-1.344-0.352-1.344-1.344
			c0-0.951,0.879-1.383,1.703-1.383h0.344v0.552h-0.168c-0.416,0-0.992,0.136-0.992,0.808
			C240.033,117.897,240.234,118.121,240.594,118.161z M242.713,118.249l-0.256,0.52c-0.28,0-0.633-0.279-0.721-0.6
			c-0.104,0.256-0.455,0.472-0.822,0.567v-0.591c0.239-0.057,0.463-0.208,0.6-0.424v-1.647c0-1.031-0.217-1.104-0.729-1.104
			c-0.439,0-0.84,0.271-0.975,0.384l-0.352-0.535c0.223-0.232,0.855-0.496,1.535-0.496c0.623,0,1.223,0.224,1.375,0.951
			c0.071,0.36,0.088,0.744,0.088,1.104v1.016c0,0,0,0.024,0,0.063C242.457,117.634,242.473,118.161,242.713,118.249z"/>
		<path fill="#ED603D" d="M245.785,118.186c0,0.088,0,0.575,0,0.575s-0.328,0.04-0.647,0.04c-0.159,0-0.319-0.008-0.44-0.032
			c-0.711-0.144-0.759-1.087-0.759-1.399c0-0.056,0-0.088,0-0.096v-4.581h0.951v4.726
			C244.89,118.113,245.306,118.186,245.785,118.186z"/>
		<path fill="#ED603D" d="M249.938,113.004l1.543,3.558v1.439h-0.248l-1.295-3.198v3.958h-0.951v-5.757H249.938z M254.303,113.004
			v5.757h-0.951v-3.958l-1.287,3.198h-0.264v-1.423l1.551-3.574H254.303z"/>
		<path fill="#ED603D" d="M257.025,118.161v0.632c-0.031,0.008-0.064,0.008-0.104,0.008c-0.711,0-1.344-0.352-1.344-1.344
			c0-0.951,0.881-1.383,1.703-1.383h0.344v0.552h-0.168c-0.416,0-0.99,0.136-0.99,0.808
			C256.467,117.897,256.666,118.121,257.025,118.161z M259.145,118.249l-0.256,0.52c-0.279,0-0.631-0.279-0.719-0.6
			c-0.105,0.256-0.457,0.472-0.824,0.567v-0.591c0.24-0.057,0.463-0.208,0.6-0.424v-1.647c0-1.031-0.217-1.104-0.729-1.104
			c-0.439,0-0.838,0.271-0.975,0.384l-0.352-0.535c0.223-0.232,0.855-0.496,1.535-0.496c0.623,0,1.223,0.224,1.375,0.951
			c0.072,0.36,0.088,0.744,0.088,1.104v1.016c0,0,0,0.024,0,0.063C258.889,117.634,258.904,118.161,259.145,118.249z"/>
		<path fill="#ED603D" d="M261.225,114.355l0.105,0.455v2.391c0,0.017,0,0.017,0,0.017v1.543h-0.943v-4.405H261.225z
			 M262.865,114.323v0.983c-0.137-0.04-0.328-0.064-0.537-0.064c-0.223,0-0.471,0.032-0.68,0.104v-0.792
			C261.904,114.403,262.24,114.323,262.865,114.323z"/>
		<path fill="#ED603D" d="M263.875,112.692h0.951v6.068h-0.951V112.692z M267.504,118.761h-1.078l-1.279-1.688v-1.087l1.094-1.631
			h1.064l-1.551,2.198L267.504,118.761z"/>
		<path fill="#ED603D" d="M271.52,117.617l0.344,0.528c-0.344,0.423-0.768,0.647-1.479,0.647c-1.15,0-2.023-1.008-2.023-2.239
			c0-1.199,0.824-2.175,1.84-2.246v0.751c-0.768,0.152-0.959,1.056-0.959,1.535c0,0.8,0.383,1.432,1.246,1.432
			C270.721,118.025,271.225,117.921,271.52,117.617z M272.359,116.506c0,0.128-0.008,0.248-0.023,0.376h-2.68v-0.688h1.809
			c0-0.528-0.393-1.071-0.943-1.144v-0.735C271.656,114.419,272.359,115.387,272.359,116.506z"/>
		<path fill="#ED603D" d="M275.824,118.186c0,0.088,0,0.575,0,0.575s-0.326,0.04-0.654,0.04c-0.16,0-0.32-0.008-0.439-0.032
			c-0.705-0.136-0.752-1.087-0.752-1.399c0-0.048,0-0.08,0-2.374h-0.576v-0.64h0.576v-1.248h0.943v1.248h0.703v0.64h-0.703v2.431
			C274.922,118.121,275.346,118.186,275.824,118.186z"/>
	</g>
</g>
</svg>
