<?xml version="1.0" encoding="utf-8"?>
<!-- Generator: Adobe Illustrator 16.0.0, SVG Export Plug-In . SVG Version: 6.00 Build 0)  -->
<!DOCTYPE svg PUBLIC "-//W3C//DTD SVG 1.1//EN" "http://www.w3.org/Graphics/SVG/1.1/DTD/svg11.dtd">
<svg version="1.1" id="Layer_1" xmlns="http://www.w3.org/2000/svg" xmlns:xlink="http://www.w3.org/1999/xlink" x="0px" y="0px"
	 width="259.895px" height="63.748px" viewBox="0 0 259.895 63.748" enable-background="new 0 0 259.895 63.748"
	 xml:space="preserve">
<g>
	<radialGradient id="SVGID_1_" cx="44.4087" cy="33.4546" r="31.179" gradientUnits="userSpaceOnUse">
		<stop  offset="0" style="stop-color:#EA582B"/>
		<stop  offset="0.5" style="stop-color:#FBB040"/>
		<stop  offset="1" style="stop-color:#EA582B"/>
	</radialGradient>
	
		<rect x="24.862" y="13.907" transform="matrix(0.7071 -0.7071 0.7071 0.7071 -10.6488 41.2021)" fill="none" stroke="url(#SVGID_1_)" stroke-width="5" stroke-miterlimit="10" width="39.094" height="39.094"/>
	
		<rect x="54.491" y="20.99" transform="matrix(0.707 -0.7072 0.7072 0.707 -4.0432 57.1491)" fill="none" stroke="#1C4177" stroke-width="4" stroke-miterlimit="10" width="24.929" height="24.929"/>
	<polygon fill="none" stroke="#1C4177" stroke-width="4" stroke-miterlimit="10" points="39.35,33.455 33.791,39.014 30.244,42.561 
		21.722,51.083 4.094,33.455 21.722,15.827 	"/>
</g>
<g>
	<g>
		<path fill="#E65F28" d="M111.26,36.792h-4.199l-6.488-18.7l-6.522,18.7h-4.232l8.709-24.946h4.058L111.26,36.792z M102.83,28.847
			l0.969,2.775h-6.485l0.971-2.775H102.83z"/>
		<path fill="#E65F28" d="M124.714,11.535v3.4c-2.67,0.694-4.786,3.365-4.857,9.263c0.071,5.83,2.188,8.881,4.857,9.609v3.088
			c-5.203-0.659-8.984-4.961-8.984-12.697C115.73,16.46,119.511,12.159,124.714,11.535z M126.243,14.761c-0.036,0-0.105,0-0.14,0
			v-3.33h0.034c2.706,0,5.102,0.901,6.938,2.705l-2.81,2.499C129.189,15.351,127.733,14.761,126.243,14.761z M134.36,23.919v9.646
			c-2.048,2.566-5.238,3.398-8.223,3.398h-0.034v-2.983c1.073,0,3.47-0.208,4.23-1.11v-6.175h-4.23v-2.776H134.36z"/>
		<path fill="#E65F28" d="M144.381,11.812l6.693,15.439v6.245H150l-5.619-13.879v17.175h-4.13v-24.98H144.381z M163.324,11.812
			v24.98h-4.13V19.618l-5.585,13.879h-1.146v-6.176l6.73-15.509H163.324z"/>
		<path fill="#E65F28" d="M190.03,36.792h-4.197l-6.487-18.7l-6.524,18.7h-4.23l8.71-24.946h4.058L190.03,36.792z M181.6,28.847
			l0.97,2.775h-6.485l0.972-2.775H181.6z"/>
		<path fill="#E65F28" d="M195.229,11.812h4.059v24.98h-4.059V11.812z M212.16,36.792h-4.303l-4.719-9.055
			c-0.277,0.033-0.417,0.033-2.463,0.033v-2.983H203c1.909,0,4.199-1.146,4.199-5.239c0-1.665-0.694-4.648-4.857-4.648h-1.666
			v-3.088h1.735c4.267,0,8.707,2.88,8.707,7.736c0,3.574-1.804,6.176-4.647,7.426L212.16,36.792z"/>
		<path fill="#E65F28" d="M217.705,11.812h4.129v24.98h-4.129V11.812z M234.6,36.792h-4.719l-6.661-9.818v-4.962l6.072-10.2h4.649
			l-8.015,12.836L234.6,36.792z"/>
		<path fill="#E65F28" d="M246.392,33.705c0.035,0,0.069,0,0.104,0v3.228c-0.035,0-0.035,0-0.069,0
			c-2.082,0-4.892-0.418-6.488-1.807l0.729-2.913C241.987,32.94,244.587,33.705,246.392,33.705z M246.497,11.5v3.574
			c-1.422,0.52-2.534,1.907-2.534,3.191c0,1.736,1.076,2.741,2.534,3.539v3.886c-2.948-1.492-6.383-3.157-6.383-7.286
			C240.114,14.449,242.993,11.951,246.497,11.5z M247.884,14.83v-3.398c1.979,0.034,4.232,0.381,5.516,1.214
			c-0.589,1.214-1.525,2.948-1.595,3.052C251.318,15.491,250.694,14.657,247.884,14.83z M254.442,29.958
			c0,3.261-2.428,6.313-6.558,6.867v-3.259c1.803-0.451,2.775-1.701,2.775-3.678c0-1.562-1.18-2.533-2.775-3.435v-3.957
			C250.869,23.919,254.442,25.24,254.442,29.958z"/>
	</g>
	<g>
		<path fill="#E65F28" d="M116.103,52.401h-1.68l-2.591-7.474l-2.608,7.474h-1.691l3.479-9.971h1.623L116.103,52.401z
			 M112.734,49.224l0.386,1.111h-2.592l0.389-1.111H112.734z"/>
		<path fill="#E65F28" d="M117.896,48.476c0-2.814,1.734-3.786,3.163-3.786c0.554,0,1.08,0.14,1.483,0.376v1.428
			c-0.291-0.334-0.681-0.54-1.138-0.54c-1.081,0-1.774,1.191-1.774,2.605c0,1.456,0.722,2.62,1.802,2.62
			c0.443,0,0.819-0.192,1.11-0.511v1.414c-0.416,0.221-1.013,0.388-1.636,0.388C118.869,52.47,117.896,50.543,117.896,48.476z
			 M124.748,44.76l-0.015,7.641c-0.152,2.218-1.539,3.078-3.274,3.078c-1.011,0-2.079-0.334-2.715-1.15l0.94-0.943
			c0.362,0.61,1.194,0.763,1.623,0.763c1.124,0,1.789-0.581,1.789-2.148v-6.463l0.183-0.776H124.748z"/>
		<path fill="#E65F28" d="M128.843,44.76l0.18,0.79v4.145c0,0.03,0,0.03,0,0.03v2.676h-1.636V44.76H128.843z M131.685,44.705v1.706
			c-0.236-0.069-0.569-0.111-0.927-0.111c-0.391,0-0.821,0.056-1.179,0.181v-1.375C130.022,44.843,130.605,44.705,131.685,44.705z"
			/>
		<path fill="#E65F28" d="M134.253,43.291c-0.541,0-0.971-0.432-0.971-0.972c0-0.526,0.43-0.969,0.971-0.969
			c0.529,0,0.972,0.442,0.972,0.969C135.225,42.859,134.783,43.291,134.253,43.291z M135.073,52.401h-1.651V44.76h1.651V52.401z"/>
		<path fill="#E65F28" d="M144.602,42.305v1.358c-1.067,0.278-1.914,1.347-1.941,3.704c0.027,2.327,0.874,3.549,1.941,3.841v1.233
			c-2.081-0.264-3.591-1.981-3.591-5.074C141.011,44.276,142.521,42.555,144.602,42.305z M145.211,43.596c-0.014,0-0.041,0-0.055,0
			v-1.333h0.014c1.083,0,2.039,0.361,2.774,1.083l-1.125,0.996C146.39,43.831,145.809,43.596,145.211,43.596z M148.457,47.254v3.857
			c-0.817,1.024-2.093,1.358-3.286,1.358h-0.014v-1.191c0.431,0,1.387-0.084,1.692-0.445v-2.469h-1.692v-1.11H148.457z"/>
		<path fill="#E65F28" d="M153.912,51.404c0,0.15,0,0.997,0,0.997s-0.567,0.069-1.122,0.069c-0.278,0-0.557-0.015-0.763-0.056
			c-1.234-0.248-1.318-1.885-1.318-2.428c0-0.097,0-0.152,0-0.166v-7.944h1.649v8.194C152.358,51.279,153.081,51.404,153.912,51.404
			z"/>
		<path fill="#E65F28" d="M158.7,44.732v1.261c-0.902,0.195-1.499,1.236-1.499,2.553c0,1.331,0.554,2.441,1.499,2.607v1.303
			c-1.984-0.139-3.231-1.787-3.231-3.868C155.468,46.48,156.773,44.899,158.7,44.732z M162.498,48.615
			c0,2.094-1.303,3.702-3.244,3.841v-1.303c0.901-0.194,1.526-1.235,1.526-2.538c0-1.316-0.583-2.455-1.526-2.622v-1.274
			C161.25,44.843,162.498,46.505,162.498,48.615z"/>
		<path fill="#E65F28" d="M164.638,41.876h1.638v9.622c-0.016,0.25-0.069,0.584-0.083,0.902h-1.555V41.876z M171.476,48.451
			c0,2.079-0.958,4.02-2.997,4.02c-0.623,0-1.232-0.167-1.65-0.403v-1.414c0.278,0.319,0.653,0.526,1.097,0.526
			c1.068,0,1.831-1.122,1.831-2.578c0-1.416-0.682-2.647-1.762-2.647c-0.457,0-0.859,0.206-1.166,0.552v-1.439
			c0.403-0.236,0.931-0.376,1.485-0.376c1.191,0,2.509,0.638,2.996,2.386C171.42,47.493,171.476,47.963,171.476,48.451z"/>
		<path fill="#E65F28" d="M175.626,51.36v1.096c-0.056,0.015-0.111,0.015-0.18,0.015c-1.235,0-2.33-0.61-2.33-2.33
			c0-1.65,1.524-2.399,2.953-2.399h0.596v0.958h-0.291c-0.721,0-1.721,0.233-1.721,1.399
			C174.654,50.903,175.003,51.292,175.626,51.36z M179.301,51.512l-0.443,0.902c-0.486,0-1.098-0.484-1.25-1.041
			c-0.18,0.445-0.789,0.818-1.426,0.985v-1.024c0.415-0.1,0.803-0.362,1.04-0.735v-2.858c0-1.787-0.377-1.912-1.264-1.912
			c-0.763,0-1.457,0.471-1.69,0.665l-0.61-0.93c0.387-0.403,1.484-0.859,2.663-0.859c1.081,0,2.121,0.387,2.385,1.65
			c0.124,0.623,0.152,1.289,0.152,1.912v1.762c0,0,0,0.042,0,0.111C178.858,50.446,178.885,51.36,179.301,51.512z"/>
		<path fill="#E65F28" d="M184.629,51.404c0,0.15,0,0.997,0,0.997s-0.568,0.069-1.122,0.069c-0.276,0-0.554-0.015-0.765-0.056
			c-1.232-0.248-1.315-1.885-1.315-2.428c0-0.097,0-0.152,0-0.166v-7.944h1.649v8.194C183.077,51.279,183.798,51.404,184.629,51.404
			z"/>
		<path fill="#E65F28" d="M191.833,42.417l2.675,6.171v2.496h-0.43l-2.245-5.547v6.864h-1.651v-9.984H191.833z M199.402,42.417
			v9.984h-1.649v-6.864l-2.232,5.547h-0.456v-2.469l2.688-6.198H199.402z"/>
		<path fill="#E65F28" d="M204.124,51.36v1.096c-0.053,0.015-0.111,0.015-0.178,0.015c-1.233,0-2.331-0.61-2.331-2.33
			c0-1.65,1.527-2.399,2.953-2.399h0.597v0.958h-0.292c-0.721,0-1.717,0.233-1.717,1.399
			C203.156,50.903,203.501,51.292,204.124,51.36z M207.799,51.512l-0.442,0.902c-0.485,0-1.095-0.484-1.248-1.041
			c-0.183,0.445-0.792,0.818-1.429,0.985v-1.024c0.416-0.1,0.802-0.362,1.04-0.735v-2.858c0-1.787-0.376-1.912-1.264-1.912
			c-0.763,0-1.453,0.471-1.691,0.665l-0.609-0.93c0.387-0.403,1.484-0.859,2.663-0.859c1.081,0,2.12,0.387,2.385,1.65
			c0.125,0.623,0.153,1.289,0.153,1.912v1.762c0,0,0,0.042,0,0.111C207.357,50.446,207.383,51.36,207.799,51.512z"/>
		<path fill="#E65F28" d="M211.408,44.76l0.183,0.79v4.145c0,0.03,0,0.03,0,0.03v2.676h-1.637V44.76H211.408z M214.252,44.705v1.706
			c-0.237-0.069-0.568-0.111-0.932-0.111c-0.386,0-0.815,0.056-1.179,0.181v-1.375C212.586,44.843,213.169,44.705,214.252,44.705z"
			/>
		<path fill="#E65F28" d="M216.004,41.876h1.649v10.524h-1.649V41.876z M222.297,52.401h-1.869l-2.22-2.926v-1.887l1.897-2.828
			h1.847l-2.69,3.813L222.297,52.401z"/>
		<path fill="#E65F28" d="M229.261,50.418l0.597,0.916c-0.597,0.732-1.331,1.121-2.564,1.121c-1.995,0-3.509-1.747-3.509-3.883
			c0-2.079,1.43-3.771,3.191-3.896v1.303c-1.332,0.265-1.663,1.831-1.663,2.664c0,1.386,0.664,2.482,2.16,2.482
			C227.876,51.125,228.75,50.945,229.261,50.418z M230.718,48.49c0,0.223-0.014,0.432-0.04,0.651h-4.648V47.95h3.138
			c0-0.916-0.682-1.859-1.637-1.984V44.69C229.5,44.872,230.718,46.549,230.718,48.49z"/>
		<path fill="#E65F28" d="M236.728,51.404c0,0.15,0,0.997,0,0.997s-0.565,0.069-1.135,0.069c-0.278,0-0.557-0.015-0.763-0.056
			c-1.223-0.236-1.304-1.885-1.304-2.428c0-0.083,0-0.139,0-4.116h-0.999v-1.11h0.999v-2.165h1.636v2.165h1.22v1.11h-1.22v4.214
			C235.163,51.292,235.898,51.404,236.728,51.404z"/>
	</g>
</g>
</svg>
