<?xml version="1.0" encoding="utf-8"?>
<!-- Generator: Adobe Illustrator 16.0.0, SVG Export Plug-In . SVG Version: 6.00 Build 0)  -->
<!DOCTYPE svg PUBLIC "-//W3C//DTD SVG 1.1//EN" "http://www.w3.org/Graphics/SVG/1.1/DTD/svg11.dtd">
<svg version="1.1" id="Layer_1" xmlns="http://www.w3.org/2000/svg" xmlns:xlink="http://www.w3.org/1999/xlink" x="0px" y="0px"
	 width="186.515px" height="63.748px" viewBox="0 0 186.515 63.748" enable-background="new 0 0 186.515 63.748"
	 xml:space="preserve">
<g>
	<radialGradient id="SVGID_1_" cx="44.4087" cy="32.0503" r="31.1785" gradientUnits="userSpaceOnUse">
		<stop  offset="0" style="stop-color:#EA582B"/>
		<stop  offset="0.5" style="stop-color:#FBB040"/>
		<stop  offset="1" style="stop-color:#EA582B"/>
	</radialGradient>
	
		<rect x="24.862" y="12.502" transform="matrix(0.7071 -0.7071 0.7071 0.7071 -9.655 40.7905)" fill="none" stroke="url(#SVGID_1_)" stroke-width="5" stroke-miterlimit="10" width="39.094" height="39.094"/>
	
		<rect x="54.491" y="19.585" transform="matrix(0.707 -0.7072 0.7072 0.707 -3.0495 56.7374)" fill="none" stroke="#1C4177" stroke-width="4" stroke-miterlimit="10" width="24.929" height="24.929"/>
	<polygon fill="none" stroke="#1C4177" stroke-width="4" stroke-miterlimit="10" points="39.35,32.049 33.791,37.609 30.244,41.156 
		21.722,49.678 4.094,32.049 21.722,14.422 	"/>
</g>
<g>
	<g>
		<path fill="#E65F28" d="M102.951,33.973h-2.421l-3.741-10.782l-3.761,10.782h-2.44l5.021-14.383h2.34L102.951,33.973z
			 M98.089,29.392l0.56,1.601h-3.74l0.56-1.601H98.089z"/>
		<path fill="#E65F28" d="M110.708,19.41v1.96c-1.54,0.4-2.76,1.94-2.801,5.341c0.041,3.361,1.261,5.121,2.801,5.541v1.78
			c-3-0.38-5.181-2.86-5.181-7.321S107.708,19.77,110.708,19.41z M111.589,21.271c-0.021,0-0.061,0-0.08,0v-1.92h0.02
			c1.561,0,2.941,0.52,4.001,1.56l-1.62,1.441C113.289,21.611,112.449,21.271,111.589,21.271z M116.27,26.551v5.562
			c-1.181,1.48-3.021,1.96-4.741,1.96h-0.02v-1.72c0.619,0,2-0.12,2.439-0.641v-3.561h-2.439v-1.601H116.27z"/>
		<path fill="#E65F28" d="M122.048,19.57l3.859,8.902v3.601h-0.619l-3.24-8.002v9.902h-2.381V19.57H122.048z M132.97,19.57v14.403
			h-2.381v-9.902l-3.221,8.002h-0.66v-3.561l3.881-8.942H132.97z"/>
		<path fill="#E65F28" d="M148.369,33.973h-2.42l-3.74-10.782l-3.762,10.782h-2.439l5.021-14.383h2.34L148.369,33.973z
			 M143.508,29.392l0.56,1.601h-3.74l0.561-1.601H143.508z"/>
		<path fill="#E65F28" d="M151.367,19.57h2.34v14.403h-2.34V19.57z M161.128,33.973h-2.48l-2.721-5.221
			c-0.16,0.02-0.24,0.02-1.42,0.02v-1.721h1.34c1.101,0,2.421-0.66,2.421-3.021c0-0.96-0.4-2.681-2.801-2.681h-0.96v-1.78h1
			c2.46,0,5.021,1.661,5.021,4.461c0,2.061-1.04,3.561-2.68,4.281L161.128,33.973z"/>
		<path fill="#E65F28" d="M164.326,19.57h2.381v14.403h-2.381V19.57z M174.068,33.973h-2.721l-3.841-5.661v-2.86l3.501-5.882h2.681
			l-4.621,7.401L174.068,33.973z"/>
		<path fill="#E65F28" d="M180.867,32.193c0.021,0,0.04,0,0.061,0v1.86c-0.021,0-0.021,0-0.04,0c-1.2,0-2.82-0.24-3.741-1.04
			l0.42-1.681C178.327,31.752,179.827,32.193,180.867,32.193z M180.927,19.39v2.061c-0.82,0.3-1.461,1.1-1.461,1.84
			c0,1.001,0.62,1.581,1.461,2.041v2.24c-1.7-0.86-3.681-1.82-3.681-4.201C177.247,21.09,178.907,19.65,180.927,19.39z
			 M181.727,21.31v-1.96c1.141,0.02,2.44,0.22,3.181,0.7c-0.34,0.7-0.88,1.7-0.92,1.76C183.708,21.691,183.347,21.21,181.727,21.31z
			 M185.508,30.033c0,1.88-1.4,3.641-3.781,3.96v-1.88c1.04-0.26,1.601-0.98,1.601-2.12c0-0.9-0.681-1.461-1.601-1.98v-2.281
			C183.448,26.551,185.508,27.312,185.508,30.033z"/>
	</g>
	<g>
		<path fill="#E65F28" d="M105.743,42.973h-0.968l-1.494-4.31l-1.504,4.31h-0.976l2.007-5.749h0.936L105.743,42.973z M103.8,41.142
			l0.223,0.64h-1.494l0.224-0.64H103.8z"/>
		<path fill="#E65F28" d="M106.777,40.71c0-1.623,1-2.183,1.824-2.183c0.319,0,0.623,0.08,0.855,0.216v0.823
			c-0.168-0.191-0.393-0.312-0.656-0.312c-0.623,0-1.023,0.688-1.023,1.503c0,0.84,0.416,1.511,1.039,1.511
			c0.256,0,0.473-0.111,0.641-0.295v0.815c-0.24,0.128-0.584,0.224-0.943,0.224C107.337,43.013,106.777,41.902,106.777,40.71z
			 M110.727,38.568l-0.008,4.405c-0.088,1.279-0.888,1.775-1.888,1.775c-0.583,0-1.199-0.192-1.566-0.664l0.543-0.544
			c0.209,0.353,0.688,0.44,0.936,0.44c0.648,0,1.032-0.336,1.032-1.239v-3.727l0.104-0.447H110.727z"/>
		<path fill="#E65F28" d="M113.089,38.568l0.104,0.455v2.391c0,0.017,0,0.017,0,0.017v1.543h-0.943v-4.405H113.089z M114.728,38.536
			v0.983c-0.137-0.04-0.328-0.064-0.535-0.064c-0.225,0-0.473,0.032-0.68,0.104v-0.792
			C113.769,38.616,114.105,38.536,114.728,38.536z"/>
		<path fill="#E65F28" d="M116.208,37.72c-0.312,0-0.56-0.248-0.56-0.56c0-0.304,0.248-0.56,0.56-0.56
			c0.305,0,0.561,0.256,0.561,0.56C116.769,37.472,116.513,37.72,116.208,37.72z M116.681,42.973h-0.952v-4.405h0.952V42.973z"/>
		<path fill="#E65F28" d="M122.175,37.152v0.784c-0.615,0.16-1.104,0.775-1.119,2.135c0.016,1.343,0.504,2.047,1.119,2.215v0.712
			c-1.199-0.152-2.07-1.144-2.07-2.927S120.976,37.296,122.175,37.152z M122.527,37.896c-0.008,0-0.023,0-0.031,0v-0.768h0.008
			c0.624,0,1.176,0.208,1.6,0.624l-0.648,0.575C123.207,38.032,122.872,37.896,122.527,37.896z M124.398,40.006v2.224
			c-0.471,0.591-1.207,0.783-1.895,0.783h-0.008v-0.688c0.248,0,0.799-0.048,0.976-0.256v-1.424h-0.976v-0.64H124.398z"/>
		<path fill="#E65F28" d="M127.543,42.398c0,0.088,0,0.575,0,0.575s-0.327,0.04-0.647,0.04c-0.16,0-0.32-0.008-0.439-0.032
			c-0.712-0.144-0.76-1.087-0.76-1.399c0-0.056,0-0.088,0-0.096v-4.581h0.951v4.726C126.648,42.326,127.064,42.398,127.543,42.398z"
			/>
		<path fill="#E65F28" d="M130.304,38.551v0.728c-0.521,0.112-0.864,0.712-0.864,1.472c0,0.768,0.319,1.407,0.864,1.503v0.752
			c-1.145-0.08-1.863-1.031-1.863-2.231C128.441,39.559,129.193,38.648,130.304,38.551z M132.494,40.791
			c0,1.207-0.751,2.135-1.87,2.215v-0.752c0.52-0.111,0.88-0.712,0.88-1.463c0-0.76-0.336-1.415-0.88-1.512v-0.735
			C131.775,38.616,132.494,39.575,132.494,40.791z"/>
		<path fill="#E65F28" d="M133.728,36.905h0.944v5.549c-0.009,0.144-0.04,0.336-0.048,0.52h-0.896V36.905z M137.67,40.695
			c0,1.199-0.552,2.318-1.728,2.318c-0.359,0-0.711-0.096-0.951-0.232v-0.815c0.16,0.185,0.376,0.304,0.632,0.304
			c0.616,0,1.056-0.647,1.056-1.486c0-0.816-0.393-1.527-1.016-1.527c-0.264,0-0.496,0.12-0.672,0.319v-0.831
			c0.232-0.136,0.536-0.216,0.855-0.216c0.688,0,1.447,0.367,1.728,1.375C137.638,40.143,137.67,40.415,137.67,40.695z"/>
		<path fill="#E65F28" d="M140.064,42.374v0.632c-0.032,0.008-0.064,0.008-0.104,0.008c-0.713,0-1.344-0.352-1.344-1.344
			c0-0.951,0.879-1.383,1.703-1.383h0.344v0.552h-0.168c-0.416,0-0.992,0.136-0.992,0.808
			C139.503,42.11,139.705,42.333,140.064,42.374z M142.183,42.461l-0.256,0.52c-0.28,0-0.633-0.279-0.721-0.6
			c-0.104,0.256-0.455,0.472-0.822,0.567v-0.591c0.239-0.057,0.463-0.208,0.6-0.424v-1.647c0-1.031-0.217-1.104-0.729-1.104
			c-0.439,0-0.84,0.271-0.975,0.384l-0.352-0.535c0.223-0.232,0.855-0.496,1.535-0.496c0.623,0,1.223,0.224,1.375,0.951
			c0.071,0.36,0.088,0.744,0.088,1.104v1.016c0,0,0,0.024,0,0.063C141.927,41.846,141.943,42.374,142.183,42.461z"/>
		<path fill="#E65F28" d="M145.255,42.398c0,0.088,0,0.575,0,0.575s-0.328,0.04-0.647,0.04c-0.159,0-0.319-0.008-0.44-0.032
			c-0.711-0.144-0.759-1.087-0.759-1.399c0-0.056,0-0.088,0-0.096v-4.581h0.951v4.726C144.36,42.326,144.776,42.398,145.255,42.398z
			"/>
		<path fill="#E65F28" d="M149.408,37.216l1.543,3.558v1.439h-0.248l-1.295-3.198v3.958h-0.951v-5.757H149.408z M153.773,37.216
			v5.757h-0.951v-3.958l-1.287,3.198h-0.264v-1.423l1.551-3.574H153.773z"/>
		<path fill="#E65F28" d="M156.496,42.374v0.632c-0.031,0.008-0.064,0.008-0.104,0.008c-0.711,0-1.344-0.352-1.344-1.344
			c0-0.951,0.881-1.383,1.703-1.383h0.344v0.552h-0.168c-0.416,0-0.99,0.136-0.99,0.808
			C155.937,42.11,156.136,42.333,156.496,42.374z M158.615,42.461l-0.256,0.52c-0.279,0-0.631-0.279-0.719-0.6
			c-0.105,0.256-0.457,0.472-0.824,0.567v-0.591c0.24-0.057,0.463-0.208,0.6-0.424v-1.647c0-1.031-0.217-1.104-0.729-1.104
			c-0.439,0-0.838,0.271-0.975,0.384l-0.352-0.535c0.223-0.232,0.855-0.496,1.535-0.496c0.623,0,1.223,0.224,1.375,0.951
			c0.072,0.36,0.088,0.744,0.088,1.104v1.016c0,0,0,0.024,0,0.063C158.359,41.846,158.375,42.374,158.615,42.461z"/>
		<path fill="#E65F28" d="M160.695,38.568l0.105,0.455v2.391c0,0.017,0,0.017,0,0.017v1.543h-0.943v-4.405H160.695z M162.335,38.536
			v0.983c-0.137-0.04-0.328-0.064-0.537-0.064c-0.223,0-0.471,0.032-0.68,0.104v-0.792C161.375,38.616,161.71,38.536,162.335,38.536
			z"/>
		<path fill="#E65F28" d="M163.345,36.905h0.951v6.068h-0.951V36.905z M166.974,42.973h-1.078l-1.279-1.688v-1.087l1.094-1.631
			h1.064l-1.551,2.198L166.974,42.973z"/>
		<path fill="#E65F28" d="M170.99,41.83l0.344,0.528c-0.344,0.423-0.768,0.647-1.479,0.647c-1.15,0-2.023-1.008-2.023-2.239
			c0-1.199,0.824-2.175,1.84-2.246v0.751c-0.768,0.152-0.959,1.056-0.959,1.535c0,0.8,0.383,1.432,1.246,1.432
			C170.191,42.238,170.695,42.133,170.99,41.83z M171.83,40.718c0,0.128-0.008,0.248-0.023,0.376h-2.68v-0.688h1.809
			c0-0.528-0.393-1.071-0.943-1.144v-0.735C171.126,38.631,171.83,39.599,171.83,40.718z"/>
		<path fill="#E65F28" d="M175.294,42.398c0,0.088,0,0.575,0,0.575s-0.326,0.04-0.654,0.04c-0.16,0-0.32-0.008-0.439-0.032
			c-0.705-0.136-0.752-1.087-0.752-1.399c0-0.048,0-0.08,0-2.374h-0.576v-0.64h0.576V37.32h0.943v1.248h0.703v0.64h-0.703v2.431
			C174.392,42.333,174.816,42.398,175.294,42.398z"/>
	</g>
</g>
</svg>
